<?xml version="1.0" encoding="utf-8"?>
<!-- Generator: Adobe Illustrator 26.0.1, SVG Export Plug-In . SVG Version: 6.00 Build 0)  -->
<svg version="1.1" id="Layer_1" xmlns="http://www.w3.org/2000/svg" xmlns:xlink="http://www.w3.org/1999/xlink" x="0px" y="0px"
	 viewBox="0 0 1124.32 474.6" style="enable-background:new 0 0 1124.32 474.6;" xml:space="preserve">
<style type="text/css">
	.st0{fill:#1A3561;}
	.st1{fill:url(#SVGID_1_);}
	.st2{fill:url(#SVGID_00000062158313478441504490000012187473746696198582_);}
	.st3{fill:#FFFFFF;}
</style>
<g>
	<g>
		<circle class="st0" cx="237.3" cy="237.3" r="237.3"/>
		<g>
			<g>
				<g>
					<linearGradient id="SVGID_1_" gradientUnits="userSpaceOnUse" x1="237.3016" y1="345.687" x2="237.3016" y2="128.4592">
						<stop  offset="1.385225e-07" style="stop-color:#C2AA55"/>
						<stop  offset="0.6646" style="stop-color:#7C9687"/>
						<stop  offset="1" style="stop-color:#5D8D9D"/>
					</linearGradient>
					<polygon class="st1" points="268.47,275.27 355.52,191.56 309.14,152.61 165.46,152.61 119.09,191.56 206.13,275.27 
						206.13,323.14 67.49,189.82 152.9,118.1 321.7,118.1 407.11,189.82 268.47,323.14 					"/>
				</g>
			</g>
			
				<linearGradient id="SVGID_00000183247469892287165410000017772864001293173402_" gradientUnits="userSpaceOnUse" x1="237.3041" y1="345.687" x2="237.3041" y2="128.4592">
				<stop  offset="1.385225e-07" style="stop-color:#C2AA55"/>
				<stop  offset="0.6646" style="stop-color:#7C9687"/>
				<stop  offset="1" style="stop-color:#5D8D9D"/>
			</linearGradient>
			<polygon style="fill:url(#SVGID_00000183247469892287165410000017772864001293173402_);" points="220.05,356.5 220.05,200.25 
				148.21,200.25 139.9,192.26 170.53,166.54 304.07,166.54 334.71,192.26 326.4,200.25 254.56,200.25 254.56,356.5 			"/>
		</g>
	</g>
	<g>
		<g>
			<path class="st3" d="M531.28,146.43h123.05v22.23h-50.41v159.5h-22.23v-159.5h-50.41V146.43z"/>
			<path class="st3" d="M670.88,146.43h67.47c26.11,0,47.57,21.46,47.57,47.83c0,8.53-3.36,22.23-9.56,28.44l-1.29,1.81l2.07,1.03
				c18.35,9.31,29.73,27.66,29.73,48.34c0,29.47-24.3,54.29-54.29,54.29h-81.69V146.43z M738.35,219.59
				c13.44,0,25.33-11.12,25.33-25.33c0-13.7-11.12-25.59-25.59-25.59h-44.72v50.93H738.35z M693.37,305.68h59.2
				c17.84,0,31.8-14.48,31.8-31.8s-14.22-31.8-31.8-31.8h-59.2V305.68z"/>
			<path class="st3" d="M827.29,328.17V146.43h22.49v181.74H827.29z"/>
			<path class="st3" d="M895.53,146.43v159.25h94.62v22.49H873.04V146.43H895.53z"/>
			<path class="st3" d="M1029.7,146.43v159.25h94.62v22.49h-117.11V146.43H1029.7z"/>
		</g>
	</g>
</g>
</svg>
